<svg width="439" height="250" viewBox="0 0 439 250" fill="none" xmlns="http://www.w3.org/2000/svg">
<path d="M210.774 184.578C213.577 184.579 215.989 186.527 216.534 189.23L220.012 206.77L199.713 199.183V184.578H210.774Z" fill="#003543"/>
<path d="M202.915 186.229C205.553 186.228 207.823 188.177 208.334 190.88L212.004 206.874H192.508L188.813 186.229H202.915Z" fill="#001E26"/>
<path d="M166.791 162.371C166.978 161.755 167.557 161.363 168.172 161.436L171.963 161.869C172.529 161.934 172.99 162.375 173.101 162.958L173.287 163.949H190.776C194.732 163.949 198.136 166.87 198.905 170.924L205.691 206.77H135.098V163.939H166.304L166.791 162.371V162.371Z" fill="#003543"/>
<path d="M186.518 172.565L192.953 206.875H134.951V165.59H178.389C182.345 165.59 185.749 168.511 186.518 172.565Z" fill="#001E26"/>
<path d="M59.129 186.396C56.325 186.397 53.913 188.345 53.369 191.048L49.891 208.589L70.189 201.001V186.396H59.129Z" fill="#003543"/>
<path d="M66.987 188.047C64.349 188.047 62.08 189.995 61.568 192.698L57.898 208.692H77.395L81.089 188.047H66.987V188.047Z" fill="#001E26"/>
<path d="M103.112 164.189C102.924 163.573 102.346 163.182 101.731 163.255L97.939 163.687C97.373 163.752 96.913 164.193 96.802 164.777L96.615 165.767H79.127C75.171 165.767 71.766 168.688 70.997 172.743L64.211 208.588H134.804V165.757H103.598L103.112 164.189V164.189Z" fill="#003543"/>
<path d="M83.38 174.384L76.945 208.693H134.947V167.408H91.51C87.554 167.408 84.149 170.329 83.38 174.384Z" fill="#001E26"/>
<path d="M233.914 201.958C233.914 201.958 236.467 165.836 261.709 139.238C261.709 148.164 264.42 152.853 264.42 152.853C264.42 152.853 277.832 126.713 288.159 117.073C285.449 130.073 286.788 139.717 286.788 139.717C286.788 139.717 298.482 122.459 306.196 113.643C309.704 133.574 308.983 162.111 308.983 162.111C311.847 154.404 314.073 146.476 315.64 138.405C320.888 146.111 321.75 154.933 321.75 154.933C323.208 152.308 324.051 149.387 324.216 146.389C334.929 172.365 330.749 201.936 330.749 201.936L233.914 201.958V201.958Z" fill="#F9CA24"/>
<path d="M253.703 201.961C253.703 201.961 256.267 175.195 264.822 164.352C266.53 176.077 267.983 177.319 267.983 177.319C267.983 177.319 268.2 162.479 279.281 149.267C278.007 166.4 282.636 172.586 282.636 172.586C282.636 172.586 292.471 162.697 297.274 146.408C302.056 169.047 300.342 190.721 300.342 190.721C300.342 190.721 311.461 184.731 314.243 175.239C315.956 188.309 308.323 201.961 308.323 201.961H253.703Z" fill="white"/>
<path d="M204.906 201.609L357.098 201.61C357.098 201.61 334.433 210.925 275.721 210.925C217.009 210.925 204.906 201.609 204.906 201.609Z" fill="#33E39B"/>
<path d="M400.517 101.27C406.655 95.8898 401.557 102.951 401.002 104.569C403.809 101.991 406.411 105.342 409.945 106.785C413.48 108.227 415.285 111.289 415.936 115.278L418.19 125.78L423.507 139.655L403.039 140.818L404.462 130.947C401.87 132.866 399.537 130.202 399.049 128.027C398.495 125.569 394.38 106.649 400.517 101.27V101.27Z" fill="#E6BEAA"/>
<path d="M398.292 113.699L395.423 118.547C395.318 118.731 395.253 118.935 395.233 119.146C395.212 119.357 395.237 119.569 395.306 119.77C395.445 120.18 395.749 120.505 396.131 120.651C397.02 121.022 397.967 121.237 398.929 121.285C400.786 121.287 398.292 113.699 398.292 113.699V113.699Z" fill="#E6BEAA"/>
<path d="M404.326 130.988C403.166 132.105 400.849 131.67 399.862 129.823L405.559 126.469C405.356 129.427 404.713 130.615 404.326 130.988Z" fill="#D9B09B"/>
<path d="M406.959 119.321C408.152 119.325 409.138 117.776 409.163 115.859C409.187 113.943 408.24 112.386 407.047 112.381C405.854 112.376 404.867 113.926 404.843 115.842C404.818 117.759 405.766 119.316 406.959 119.321Z" fill="#E6BEAA"/>
<path d="M420.827 122.513L421.162 109.44C421.314 103.436 414.802 98.6699 406.555 98.8459C404.655 98.8839 402.765 99.1869 400.974 99.7419C397.545 106.037 399.198 112.712 405.357 115.414C406.244 115.797 407.198 116.083 408.194 116.265C409.486 120.68 415.008 123.411 420.827 122.513V122.513Z" fill="#002D2D"/>
<path d="M418.466 105.036C419.255 102.726 413.641 99.2859 409.256 99.0499C404.872 98.8139 392.165 101.511 386.321 100.588C391.6 106.683 397.821 109.871 403.739 109.761C408.868 109.641 418.466 105.036 418.466 105.036Z" fill="#002D2D"/>
<path d="M357.872 130.529H363.391V133.082C364.634 134.82 365.302 136.903 365.301 139.04V155.229H356.106L356.105 138.958C356.105 136.869 356.72 134.826 357.872 133.082V130.529V130.529Z" fill="#F5F5EB"/>
<path d="M363.17 128.49H358.1C357.769 128.49 357.5 128.758 357.5 129.09V130.06C357.5 130.391 357.769 130.66 358.1 130.66H363.17C363.501 130.66 363.77 130.391 363.77 130.06V129.09C363.77 128.758 363.501 128.49 363.17 128.49Z" fill="#002021"/>
<path d="M363.391 132.238C361.822 132.397 359.06 132.305 357.875 132.238V133.032C360.062 133.266 361.106 133.248 363.391 133.079V132.238Z" fill="#002021"/>
<path fill-rule="evenodd" clip-rule="evenodd" d="M357.876 132.26C356.145 132.238 352.744 133.77 352.231 139.883C352.168 140.634 352.24 141.421 352.649 142.053C353.056 142.681 353.619 143.051 354.239 142.35C354.876 141.631 354.91 140.592 354.941 139.626L354.945 139.503C355.025 137.163 355.673 134.055 357.876 133V132.26V132.26ZM356.463 132.979C355.076 133.48 352.877 135.992 352.679 140.107C352.66 140.505 352.707 140.908 352.87 141.271C353.162 141.921 353.623 142.438 354.117 141.667C354.367 141.276 354.42 140.796 354.41 140.333L354.409 140.285C354.367 138.45 354.32 136.406 356.761 133.258C356.918 133.056 356.889 132.824 356.463 132.979V132.979Z" fill="#002021"/>
<path fill-rule="evenodd" clip-rule="evenodd" d="M362.405 144.915L360.485 145.168L360.924 144.491L362.185 144.324L361.597 142.582L361.163 143.256L360.35 144.498C360.053 144.976 359.584 145.306 359.142 145.347L357.936 145.506C357.808 145.531 357.702 145.472 357.663 145.355C357.623 145.239 357.656 145.083 357.748 144.951L359.966 141.563C360.003 141.502 360.052 141.449 360.11 141.408C360.169 141.367 360.235 141.339 360.305 141.325C360.43 141.308 360.53 141.369 360.568 141.484L360.967 142.674L361.422 141.979C361.458 141.916 361.507 141.861 361.566 141.818C361.625 141.775 361.692 141.745 361.763 141.731C361.889 141.715 361.989 141.779 362.023 141.9L362.821 144.28C362.859 144.394 362.831 144.546 362.745 144.677C362.708 144.738 362.659 144.791 362.6 144.832C362.542 144.873 362.475 144.901 362.405 144.915V144.915ZM358.376 144.653L359.166 144.546C359.407 144.531 359.667 144.346 359.826 144.076L360.375 143.224L360.008 142.118L358.376 144.653Z" fill="#003C3C"/>
<path d="M364.106 146.456C367.942 144.939 370.042 149.263 370.656 150.974C371.134 152.618 373.726 155.986 365.539 156.315C355.305 156.726 351.621 154.055 353.258 147.277C353.789 145.082 357.09 149.23 364.106 146.456Z" fill="#E6BEAA"/>
<path d="M362.922 180.568C372.937 179.654 396.949 187.449 406.129 191.027C402.851 197.788 389.173 199.373 384.318 199.754L361.165 196.738C358.055 192.17 352.907 181.482 362.922 180.568V180.568Z" fill="black"/>
<path d="M383.678 194.034C400.479 194.034 403.487 189.58 402.941 188.602C399.299 192.073 380.635 192.181 371.758 191.8C365.233 192.866 358.356 196.491 358.355 201.242C358.355 201.907 362.482 194.034 383.678 194.034V194.034Z" fill="#001D1F"/>
<path d="M422.242 211.929C439.043 211.929 438.327 200.737 435.899 194.341C426.415 191.144 406.537 185.616 402.895 189.088C399.253 192.56 380.589 192.667 371.712 192.286C365.187 193.352 358.309 196.976 358.309 201.727C358.309 216.126 401.046 211.929 422.242 211.929V211.929Z" fill="#000D0E"/>
<path d="M428.685 131.835C426.463 130.335 424.673 129.6 421.83 129.082C421.257 127.672 420.643 127.155 419.493 127.598C418.343 128.041 399.607 139.771 399.607 139.771C399.517 141.734 403.283 147.672 412.392 145.914C421.501 144.157 428.685 131.835 428.685 131.835V131.835Z" fill="#003543"/>
<path d="M393.332 157.564L402.665 147.742C405.624 147.742 408.127 160.533 408.582 164.644C409.038 168.756 401.247 169.669 395.836 169.669C393.689 169.669 369.661 159.391 366.929 157.564C364.744 156.102 367.84 151.473 369.661 149.341L393.332 157.564V157.564Z" fill="#003543"/>
<path d="M437.725 193.177C440.274 155.353 432.717 136.457 428.62 131.736C422.171 132.041 408.226 133.609 404.038 137.446C399.85 141.284 400.143 172.999 401.433 189.292C409.011 195.127 437.725 198.294 437.725 193.177Z" fill="#003543"/>
<path d="M418.929 149.479C416.246 156.451 404.866 167.299 400.594 169.411L400.632 171.666C410.881 169.211 419.408 155.575 418.929 149.479V149.479Z" fill="#012833"/>
<path fill-rule="evenodd" clip-rule="evenodd" d="M0 16.984C0 25.922 7.221 33.168 16.129 33.168C20.101 33.1723 23.9333 31.7028 26.884 29.044C25.5425 29.5198 24.1294 29.7624 22.706 29.761C15.791 29.761 10.185 24.136 10.185 17.196C10.185 10.257 15.791 4.63196 22.706 4.63196C24.456 4.63196 26.123 4.99196 27.636 5.64396C26.1389 4.10861 24.3493 2.88883 22.3729 2.05668C20.3965 1.22452 18.2734 0.796864 16.129 0.798958C7.221 0.798958 0 8.04496 0 16.984V16.984Z" fill="#003543"/>
<path d="M257.438 165.199L236.53 173.797" stroke="#24240F" stroke-linecap="round"/>
<path d="M250.61 165.689L254.072 164.172C254.578 163.951 255.167 164.181 255.387 164.688L256.328 166.852C256.549 167.358 256.317 167.949 255.811 168.17L252.349 169.687C251.843 169.909 251.255 169.678 251.034 169.171L250.093 167.007C249.872 166.501 250.104 165.911 250.61 165.689Z" fill="#FCBBCF"/>
<path d="M244.157 168.52L247.619 167.003C248.125 166.782 248.714 167.012 248.934 167.519L249.867 169.665C250.088 170.171 249.856 170.761 249.35 170.983L245.888 172.5C245.382 172.721 244.794 172.49 244.573 171.984L243.64 169.838C243.419 169.332 243.651 168.742 244.157 168.52Z" fill="#FCBBCF"/>
<path d="M242.404 222.999L249.925 223.558H250.172L249.117 219.686L229.313 183.867L226.806 206.228L242.404 222.999V222.999Z" fill="#9C9C6A"/>
<path d="M243.724 231.115C244.952 231.171 254.18 230.911 259.55 231.03C259.905 231.039 260.254 230.931 260.543 230.724C260.832 230.516 261.044 230.22 261.149 229.88C260.924 229.362 248.339 228.86 242.797 228.879C242.949 230.051 242.786 231.072 243.724 231.115V231.115Z" fill="#003C3C"/>
<path d="M258.196 226.081C251.559 224.699 250.378 221.343 249.647 219.211C249.451 218.639 248.793 218.44 248.287 218.773L242.142 222.823C242.018 222.902 241.914 223.009 241.839 223.136C241.765 223.263 241.721 223.406 241.712 223.553C241.596 225.997 242.522 228.952 242.999 229.483C244.01 230.605 256.344 229.576 261.127 229.974C261.483 229.022 262.025 226.878 258.196 226.081V226.081Z" fill="#2E6160"/>
<path d="M266.081 228.869C266.972 229.093 267.094 225.538 267.93 223.954C267.276 220.187 266.963 214.164 265.068 208.649C263.753 204.821 261.657 197.335 260.236 193.722C258.815 190.109 254.939 186.849 253.546 183.309L244.633 184.147L227.534 211.557L185.978 226.328C185.978 226.328 187.564 240.661 200.492 245.427C219.975 252.61 224.781 248.61 233.939 241.949C249.679 230.5 250.068 206.796 251.739 206.517C253.076 206.293 253.546 217.689 260.236 226.328C262 227.073 265.189 228.646 266.081 228.869V228.869Z" fill="#B4B48C"/>
<path d="M234.539 222.776C231.952 220.991 228.24 214.091 227.601 211.436C222.725 213.497 220.411 214.033 223.828 215.676C223.828 215.676 224.499 220.589 226.376 219.687C227.372 219.209 232.628 221.801 234.539 222.776C234.782 222.943 235.015 223.066 235.234 223.135C235.234 223.135 234.973 222.997 234.539 222.776Z" fill="#A8A881"/>
<path d="M194.314 241.688C225.97 251.65 240.593 234.403 244.305 228.773C242.201 234.61 234.727 246.779 221.66 248.766C208.593 250.752 197.985 244.875 194.314 241.688V241.688Z" fill="#A8A881"/>
<path d="M251.831 206.54C252.197 206.528 253.019 209.379 253.384 210.805C253.679 208.578 252.471 203.301 251.83 200.896C250.776 204.067 250.403 208.998 250.348 211.11C250.689 209.592 251.464 206.552 251.831 206.54Z" fill="#A8A881"/>
<path d="M258.59 225.939C258.449 226.424 258.674 228.044 258.685 229.016C258.685 229.016 258.71 229.968 258.685 230.293" stroke="#244949"/>
<path d="M260.771 230.725C260.904 230.729 261.03 230.785 261.121 230.881C261.212 230.978 261.261 231.107 261.258 231.239C261.254 231.372 261.198 231.498 261.101 231.589C261.005 231.68 260.876 231.73 260.743 231.726L260.771 230.725ZM258.662 230.532L258.164 230.482L258.662 230.532ZM258.681 230.285L259.18 230.312V230.314L259.179 230.318V230.334L259.175 230.389L259.159 230.581L258.164 230.482C258.172 230.412 258.177 230.341 258.181 230.271L258.182 230.261V230.258L258.681 230.285ZM259.159 230.581C259.146 230.709 259.154 230.664 259.144 230.625C259.118 230.531 259.055 230.503 259.086 230.52C259.137 230.546 259.268 230.593 259.552 230.635C259.829 230.676 260.221 230.708 260.771 230.725L260.743 231.726C260.296 231.717 259.85 231.683 259.407 231.625C259.084 231.577 258.826 231.51 258.629 231.409C258.414 231.297 258.245 231.127 258.18 230.886C258.129 230.7 258.163 230.502 258.164 230.482L259.159 230.581V230.581Z" fill="#002F2F"/>
<path d="M260.72 235.419C262.175 235.489 273.118 235.209 279.484 235.367C279.905 235.378 280.319 235.252 280.662 235.006C281.005 234.761 281.258 234.41 281.384 234.008C281.119 233.392 266.198 232.759 259.627 232.764C259.803 234.154 259.607 235.365 260.72 235.419Z" fill="#003C3C"/>
<path d="M277.888 229.497C269.802 227.792 269.153 223.178 268.457 220.54C268.302 219.952 267.64 219.753 267.134 220.089L258.786 225.632C258.663 225.711 258.56 225.818 258.486 225.944C258.411 226.07 258.367 226.212 258.356 226.358C258.183 229.272 259.289 232.847 259.86 233.484C261.054 234.818 275.682 233.636 281.352 234.122C281.777 232.994 282.426 230.454 277.888 229.497V229.497Z" fill="#2E6160"/>
<path d="M231.883 135.731C234.183 137.652 233.813 158.764 227.655 158.764C209.282 158.763 217.707 134.916 231.883 135.731Z" fill="#E6BEAA"/>
<path d="M235.221 148.093C235.731 147.444 234 144.808 232.896 143.311L232.518 148.91C232.963 149.007 234.818 148.604 235.221 148.093V148.093Z" fill="#E6BEAA"/>
<path d="M223.252 162.124C222.883 163.979 223.766 166.917 224.793 168.154C215.805 168.154 207.774 171.93 209.888 163.655C212.621 152.956 213.134 153.156 212.621 152.074L225.82 154.909C225.101 155.321 223.622 160.269 223.252 162.124V162.124Z" fill="#E6BEAA"/>
<path d="M224.165 158.694C226.194 159.056 229.164 158.936 229.828 157.707C229.828 157.707 226.988 158.159 225.081 157.707C223.174 157.255 220.135 155.686 220.135 155.686L224.165 158.694V158.694Z" fill="#D1B0A0"/>
<path d="M208.524 161.289C196.139 163.103 192.736 180.826 191.383 184.084C189.542 188.518 183.698 219.893 184.415 227.072C187.253 245.412 198.18 244.707 207.548 239.939C224.621 231.248 227.024 219.275 227.024 217.877C226.188 209.492 228.335 195.169 228.974 192.721C229.608 190.291 230.366 187.41 233.152 185.733C235.38 184.391 243.458 188.808 245.408 188.808L257.107 192.721C262.174 194.027 263.158 190.636 263.513 188.808C263.513 186.859 264.504 178.885 253.213 175.74C241.921 172.596 234.991 170.325 229.608 167.568C229.608 167.568 222.29 158.841 208.524 161.289V161.289Z" fill="#28AAF0"/>
<path d="M227.933 182.014C228.27 182.906 229.923 185.381 234.227 185.477C231.674 185.951 230.244 188.463 229.514 191.118L227.933 182.014V182.014Z" fill="#218FC9"/>
<path d="M209.434 133.507C206.205 130.441 200.679 127.155 197.295 132.07C194.067 136.756 197.338 146.224 199.681 153.006C200.843 156.369 201.776 159.072 201.576 160.203C201.093 162.933 199.8 164.989 199.213 165.675C201.246 165.673 205.097 162.636 204.237 150.506C203.477 139.783 205.16 139.345 206.418 140.791C205.543 145.991 206.418 158.104 219.401 158.104C222.483 158.104 226.211 157.695 224.258 146.173C223.52 144.433 222.932 142.23 227.143 142.25C230.337 139.754 235.85 132.827 231.698 130.167C226.508 126.841 215.93 127.355 212.336 130.22C211.548 130.848 210.468 131.988 209.434 133.507V133.507Z" fill="#24240F"/>
<path d="M205.594 140.62C204.367 140.182 204.094 137.789 204.985 135.274C205.877 132.76 207.594 131.077 208.822 131.515C210.049 131.954 210.322 134.347 209.431 136.861C208.539 139.375 206.822 141.058 205.594 140.62Z" fill="#28AAF0"/>
<path d="M123.8 162.257C120.136 158.101 122.891 146.867 122.267 144.184L134.284 148.62C134.284 148.62 152.469 154.285 159.763 163.605C161.138 165.361 161.7 167.575 161.967 169.791L165.128 196.061L159.228 199.473L151.048 172.055C150.63 170.652 149.254 169.653 147.8 169.482C141.554 168.75 126.777 165.635 123.8 162.257V162.257Z" fill="#5A7D7D"/>
<path d="M143.083 168.753C143.546 168.853 146.573 169.299 147.364 169.404C146.838 165.387 135.209 159.695 132.504 159.155C132.973 160.551 132.505 166.473 143.083 168.753V168.753Z" fill="#4F6B6B"/>
<path d="M106.417 165.624C102.754 161.468 105.509 150.234 104.884 147.551L116.901 151.987C116.901 151.987 133.078 157.026 141.036 165.418C143.481 167.996 144.039 171.68 143.768 175.225L141.763 201.478L134.383 202.012L132.994 174.066C132.965 173.486 132.452 173.024 131.872 172.987C126.906 172.672 109.66 169.304 106.417 165.624Z" fill="#5A7D7D"/>
<path d="M124.489 171.802C115.59 170.061 107.405 161.968 104.461 158.221C104.461 160.885 105.098 163.132 105.098 163.308C106.383 168.84 118.549 170.922 124.489 171.802Z" fill="#4F6B6B"/>
<path d="M133.382 209.333C133.333 209.253 133.248 208.858 133.211 208.67C137.965 209.09 147.573 210.243 147.903 210.802C148.315 211.502 147.299 212.186 147.299 212.186C144.515 213.365 133.442 209.433 133.382 209.333V209.333Z" fill="#00DC82"/>
<path d="M133.278 208.842C132.892 208.407 133.371 204.345 133.611 202.079C133.66 201.622 134.009 201.254 134.463 201.185L141.571 200.109C142.186 200.015 142.683 200.498 142.509 201.095C142.082 202.563 141.319 204.584 142.16 205.489C143.542 206.973 148.214 208.883 148.017 211.173C147.819 213.462 133.822 209.455 133.278 208.842V208.842Z" fill="#000606"/>
<path d="M159.433 204.983C159.365 204.919 159.173 204.563 159.086 204.393C163.77 203.475 173.32 201.914 173.792 202.36C174.381 202.918 173.594 203.858 173.594 203.858C171.243 205.763 159.519 205.062 159.433 204.983V204.983Z" fill="#00DC82"/>
<path d="M159.2 204.541C158.71 204.231 158.049 200.195 157.654 197.95C157.615 197.73 157.65 197.503 157.754 197.305C157.857 197.107 158.023 196.949 158.226 196.855L164.759 193.845C165.325 193.584 165.935 193.91 165.933 194.533C165.927 196.061 165.753 198.216 166.81 198.851C168.547 199.894 173.564 200.431 174.006 202.686C174.448 204.94 159.892 204.979 159.2 204.541V204.541Z" fill="#000606"/>
<path d="M119.467 102.7C120.301 103.258 121.897 100.146 122.592 98.5201C121.55 97.2431 119.745 94.1301 120.856 91.9011C121.967 89.6711 124.096 92.8301 125.022 94.6881C125.369 91.0881 126.55 83.8881 128.494 83.8881C129.882 86.9541 136.247 88.1851 139.255 88.4181C139.518 90.3571 139.621 92.0831 139.595 93.6151C139.582 94.3831 139.669 94.5441 139.595 95.2171C139.516 95.9331 140.253 99.1211 140.115 99.7371C139.954 100.457 138.211 99.4571 137.982 100.05C137.7 100.504 136.178 102.346 135.861 102.7C133.908 104.88 132.332 105.24 130.915 104.929C129.558 104.631 132.08 109.784 132.659 111.409C125.369 114.196 118.426 102.003 119.467 102.7V102.7Z" fill="#E6BEAA"/>
<path d="M127.03 101.582L130.583 105.912C130.446 105.406 130.789 104.909 130.789 104.909C129.418 103.778 127.03 101.582 127.03 101.582Z" fill="#D1B0A0"/>
<path d="M128.681 96.016C128.681 96.99 128.36 99.212 127.972 99.876C127.236 100.811 126.234 100.811 125.38 100.811C125.38 100.811 121.961 100.776 121.656 99.876C121.656 99.876 121.506 99.796 121.312 98.886C119.871 93.861 121.312 89.707 121.312 89.707C121.49 88.854 122.293 85.865 122.293 85.865C122.544 84.837 123.353 83.407 123.776 82.615C124.271 81.688 125.285 81.741 126.286 81.115C131.766 77.689 136.543 80.269 137.088 82.025C137.282 81.453 137.38 80.105 137.088 79.359C139.971 81.353 141.325 90.642 139.382 89.707C137.438 88.772 131.242 87.983 130.934 88.327C130.447 88.873 130.242 90.052 129.998 90.741C129.893 91.036 129.789 91.391 129.678 91.798C129.726 90.802 128.198 90.168 127.972 90.711C126.79 93.539 128.681 95.042 128.681 96.016V96.016Z" fill="#000808"/>
<path d="M145.753 126.242C147.21 132.142 146.658 138.999 146.658 138.999C144.416 140.141 144.805 136.907 143.808 137.403C143.808 137.403 135.592 139.37 131.13 108.686C131.856 107.104 130.995 106.233 130.55 105.765C137.486 105.475 145.077 123.502 145.753 126.242V126.242Z" fill="#001E26"/>
<path d="M104.311 158.104C105.796 161.769 132.49 158.878 137.308 152.013C141.112 127.239 135.616 109.811 132.49 106.821C132.49 106.821 131.318 105.681 130.691 105.711C126.887 107.34 122.126 103.713 121.296 101.709C120.209 101.305 118.291 101.355 110.703 104.67C101.218 108.814 102.455 153.523 104.311 158.104V158.104Z" fill="#001E26"/>
<path d="M158.043 126.341C154.219 135.333 134.929 131.438 134.48 131.288C134.48 131.288 143.422 126.419 144.369 124.743C146.591 122.985 155.631 121.796 156.479 122.521C153.787 126.543 155.8 126.616 158.043 126.341V126.341Z" fill="#001E26"/>
<path d="M98.679 127.743C89.617 135.904 98.672 151.293 105.647 157.677C109.908 161.576 119.791 158.152 122.69 153.487C125.59 148.822 124.031 147.126 127.659 145.126C129.628 144.04 131.693 144.108 132.094 143.955C149.84 146.549 148.859 137.706 143.102 122.931C137.346 108.155 125.804 115.865 124.269 118.679C123.04 120.93 120.465 121.522 119.33 121.536C114.751 120.982 107.742 119.582 98.679 127.743Z" fill="#004545"/>
<path d="M107.065 132.951C108.767 127.517 114.323 122.813 117.417 121.292C114.194 120.646 108.709 119.696 108.322 119.851C107.936 120.006 104.358 122.956 102.617 124.412L107.065 132.951V132.951Z" fill="#013838"/>
<path d="M168.232 112.074L120.211 132.96L121.572 136.549L169.901 116.475L175.472 116.279C181.009 115.593 187.801 111.316 188.112 109.644C188.369 108.264 186.918 104.687 185.47 103.635C184.022 102.583 173.571 107.578 172.432 108.264C171.52 108.812 169.252 111.033 168.232 112.074V112.074Z" fill="#005757"/>
<path d="M122.624 139.308C125.255 138.303 126.572 135.351 125.565 132.715C124.559 130.078 121.609 128.756 118.978 129.761C116.347 130.765 115.03 133.717 116.037 136.354C117.043 138.99 119.993 140.313 122.624 139.308Z" fill="#2E6160"/>
<path d="M173.811 106.239L174.082 106.136L175.278 109.265L175.007 109.369L173.811 106.239Z" fill="#003C3C"/>
<path d="M177.695 104.757L177.966 104.653L179.161 107.783L178.89 107.886L177.695 104.757Z" fill="#003C3C"/>
<path d="M181.957 103.565L182.227 103.461L183.423 106.591L183.152 106.695L181.957 103.565Z" fill="#003C3C"/>
<path d="M184.344 110.269L184.615 110.165L185.81 113.295L185.539 113.398L184.344 110.269Z" fill="#003C3C"/>
<path d="M180.475 112.095L180.746 111.992L181.942 115.121L181.671 115.225L180.475 112.095Z" fill="#003C3C"/>
<path d="M176.461 113.632L176.732 113.528L177.927 116.658L177.656 116.762L176.461 113.632Z" fill="#003C3C"/>
<path d="M174.099 106.573C174.398 106.459 174.547 106.12 174.431 105.815C174.314 105.511 173.977 105.357 173.678 105.471C173.379 105.585 173.231 105.925 173.347 106.229C173.463 106.533 173.8 106.688 174.099 106.573Z" fill="#003C3C"/>
<path d="M177.978 105.09C178.278 104.976 178.426 104.636 178.31 104.332C178.193 104.028 177.857 103.874 177.557 103.988C177.258 104.102 177.11 104.441 177.226 104.746C177.342 105.05 177.679 105.204 177.978 105.09Z" fill="#003C3C"/>
<path d="M182.162 103.686C182.461 103.572 182.61 103.232 182.494 102.928C182.377 102.624 182.041 102.469 181.741 102.584C181.442 102.698 181.294 103.037 181.41 103.342C181.526 103.646 181.863 103.8 182.162 103.686Z" fill="#003C3C"/>
<path d="M178.224 117.45C178.524 117.335 178.672 116.996 178.556 116.692C178.439 116.387 178.103 116.233 177.803 116.347C177.504 116.462 177.356 116.801 177.472 117.105C177.588 117.41 177.925 117.564 178.224 117.45Z" fill="#003C3C"/>
<path d="M182.103 115.965C182.403 115.85 182.551 115.511 182.435 115.207C182.318 114.902 181.982 114.748 181.682 114.862C181.383 114.977 181.235 115.316 181.351 115.621C181.467 115.925 181.804 116.079 182.103 115.965Z" fill="#003C3C"/>
<path d="M186.135 114.155C186.434 114.04 186.583 113.701 186.466 113.397C186.35 113.092 186.013 112.938 185.714 113.052C185.415 113.167 185.266 113.506 185.383 113.81C185.499 114.115 185.836 114.269 186.135 114.155Z" fill="#003C3C"/>
<path d="M117.437 134.169L168.255 113.219" stroke="#558887" stroke-width="0.5"/>
<path d="M118.769 135.126L168.706 114.49" stroke="#558887" stroke-width="0.5"/>
<path d="M121.242 135.679L169.153 115.764" stroke="#558887" stroke-width="0.5"/>
<path d="M120.724 138.051C122.897 137.311 123.424 137.668 124.146 137.322C124.868 136.977 126.787 135.883 127.423 135.471C127.897 135.161 129.391 131.892 129.015 131.758C129.015 131.758 129.04 131.767 129.016 131.756C128.719 131.621 128.17 131.725 127.687 132.007L126.73 132.566C126.73 132.566 124.9 133.221 123.923 133.299C122.947 133.377 122.985 133.134 123.542 132.779C123.873 132.569 124.616 132.153 125.165 131.851C125.313 131.776 125.438 131.664 125.529 131.525C125.595 131.41 125.587 131.309 125.509 131.249C125.394 131.159 125.143 131.175 124.888 131.289L123.148 132.063C122.804 132.216 122.476 132.404 122.171 132.625L120.063 134.157L118.2 135.19L119.337 138.032L120.724 138.051Z" fill="#E0B09B"/>
<path d="M112.69 117.667C115.193 113.696 121.419 104.668 121.266 101.729C100.087 101.729 96.502 127.089 98.445 133.965C100.598 141.581 119.889 138.338 120.394 138.098C122.303 137.193 121.63 135.37 120.713 133.622C119.9 132.074 109.568 131.793 107.958 130.378C106.347 128.963 109.561 122.631 112.69 117.667V117.667Z" fill="#001E26"/>
<path d="M156.121 122.619C155.622 122.834 151.352 124.542 150.711 124.758C152.065 126.184 155.123 128.73 156.526 127.508C157.928 126.285 159.202 125.702 159.663 125.563C164.06 120.931 162.212 115.36 161.499 115.235C160.786 115.111 161.366 119.112 161.303 118.944C161.24 118.775 160.052 115.381 159.402 115.36C158.882 115.343 160.227 118.708 160.185 119.199C160.045 119.087 158.077 116.475 157.557 116.475C157.037 116.475 158.839 119.21 158.888 119.638C156.194 117.804 157.56 119.356 157.724 120.105C158.498 123.643 156.619 122.404 156.121 122.619V122.619Z" fill="#E6BEAA"/>
<path d="M156.368 122.49C156.002 124.357 156.06 126.502 158.303 126.226C157.974 126.986 156.515 128.637 156.515 128.637C156.06 129.411 154.558 129.062 154.074 129.61C153.594 130.154 148.569 130.271 148.076 130.625L146.459 127.405L145.965 126.445C145.965 126.445 148.012 125.579 148.589 125.339L151.512 124.123L153.431 123.332L155.811 122.336C155.811 122.339 156.264 122.385 156.368 122.49V122.49Z" fill="#001E26"/>
</svg>
